#tb 0: 1/25
#media_type 0: video
#codec_id 0: rawvideo
#dimensions 0: 352x288
#sar 0: 0/1
0,          0,          0,        1,   152064, 0x96ebb3a2
0,          1,          1,        1,   152064, 0x5184d912
0,          2,          2,        1,   152064, 0xfa0c9abe
0,          3,          3,        1,   152064, 0x6dd81860
0,          4,          4,        1,   152064, 0xc5202966
0,          5,          5,        1,   152064, 0xa7dfdf71
0,          6,          6,        1,   152064, 0xffa5609f
0,          7,          7,        1,   152064, 0x352e7ce5
0,          8,          8,        1,   152064, 0xc9e52c2a
0,          9,          9,        1,   152064, 0x12dfd28d
0,         10,         10,        1,   152064, 0x962af5fe
0,         11,         11,        1,   152064, 0xa8459cb1
0,         12,         12,        1,   152064, 0xc0771945
0,         13,         13,        1,   152064, 0xfcbc351d
0,         14,         14,        1,   152064, 0xd925dfa3
0,         15,         15,        1,   152064, 0x7c627c21
0,         16,         16,        1,   152064, 0x617d8d96
0,         17,         17,        1,   152064, 0x91816b34
0,         18,         18,        1,   152064, 0xece0eaf8
0,         19,         19,        1,   152064, 0x7b1408ef
0,         20,         20,        1,   152064, 0x7430c4d2
0,         21,         21,        1,   152064, 0xdb5844fa
0,         22,         22,        1,   152064, 0xcc874ff7
0,         23,         23,        1,   152064, 0x97630fb8
0,         24,         24,        1,   152064, 0x16ae9c92
